<?xml version="1.0" encoding="utf-8"?>
<!-- Generator: Adobe Illustrator 15.0.2, SVG Export Plug-In . SVG Version: 6.00 Build 0)  -->
<!DOCTYPE svg PUBLIC "-//W3C//DTD SVG 1.1//EN" "http://www.w3.org/Graphics/SVG/1.1/DTD/svg11.dtd">
<svg version="1.1" xmlns="http://www.w3.org/2000/svg" xmlns:xlink="http://www.w3.org/1999/xlink" x="0px" y="0px" width="95.5px"
	 height="92.792px" viewBox="0 0 95.5 92.792" enable-background="new 0 0 95.5 92.792" xml:space="preserve">
<g id="Layer_1" display="none">
</g>
<g id="Layer_2_1_">
	<g>
		<defs>
			<rect id="SVGID_1_" width="95.5" height="92.792"/>
		</defs>
		<clipPath id="SVGID_2_">
			<use xlink:href="#SVGID_1_"  overflow="visible"/>
		</clipPath>
		<g id="Layer_1_1_" clip-path="url(#SVGID_2_)">
			<rect y="0.167" fill="#00A79D" width="95.67" height="93.145"/>
		</g>
		<g id="Layer_2" clip-path="url(#SVGID_2_)">
			<line fill="none" stroke="#FFFFFF" stroke-width="10" stroke-miterlimit="10" x1="42.124" y1="89.5" x2="55.249" y2="89.5"/>
			<path fill="none" stroke="#FFFFFF" stroke-width="9" stroke-miterlimit="10" d="M43.334,94.333
				C41.667,55,15.001,25.666,15.001,25.666c8-7.667,8.667-26,8.667-26"/>
			<path fill="none" stroke="#FFFFFF" stroke-width="9" stroke-miterlimit="10" d="M71.002-0.334c0,0,0.666,18.333,8.666,26
				c0,0-26.666,29.334-28.334,68.667"/>
			<line fill="none" stroke="#FFFFFF" stroke-width="10" stroke-miterlimit="10" x1="18.709" y1="3.125" x2="75.749" y2="3.125"/>
			<line fill="none" stroke="#FFFFFF" stroke-miterlimit="10" x1="47.334" y1="86.417" x2="47.334" y2="48.25"/>
			<rect x="39.625" y="11.458" fill="none" width="20.167" height="27.167"/>
			<line fill="none" stroke="#FFFFFF" stroke-miterlimit="10" x1="47.667" y1="49.5" x2="19.667" y2="25.333"/>
			<line fill="none" stroke="#FFFFFF" stroke-miterlimit="10" x1="47.001" y1="49.667" x2="75.002" y2="25.499"/>
		</g>
		<g clip-path="url(#SVGID_2_)">
			<path fill="#FFFFFF" d="M38.985,35.215c0.447-1.221,1.034-2.21,1.764-2.967c0.401-0.118,0.8-0.205,1.196-0.26
				c0.396-0.055,0.791-0.082,1.183-0.082c1.914,0,3.837,0.456,5.769,1.367c0.931-0.692,1.396-1.436,1.396-2.229
				c0-1.066-0.724-1.978-2.167-2.734c-1.445-0.756-3.184-1.135-5.216-1.135c-0.556,0-1.148,0.068-1.777,0.205
				c1.194-1.859,2.629-3.477,4.307-4.854c-1.312-0.328-2.224-0.713-2.734-1.155c-0.511-0.442-0.766-1.064-0.766-1.866
				c0-0.173,0.014-0.383,0.041-0.629c1.403-1.841,3.058-3.372,4.963-4.594c1.157,1.066,2.321,1.6,3.487,1.6
				c0.547,0,1.129-0.077,1.743-0.232c0.615-0.155,1.269-0.383,1.961-0.684c-0.229,1.012-0.622,1.928-1.176,2.748
				c-0.49,0.201-0.983,0.354-1.479,0.458c-0.496,0.105-0.99,0.157-1.48,0.157c-1.639,0-3.157-0.62-4.558-1.859
				c-0.711,0.638-1.066,1.226-1.066,1.764c0,0.976,1.057,1.769,3.172,2.379c0.647,0.183,1.043,0.301,1.188,0.355l0.943,0.301
				c3.619,1.176,5.428,3.054,5.428,5.633c0,1.677-1.082,3.396-3.25,5.154c-0.463,0.383-0.717,0.593-0.764,0.629l-0.641,0.588
				c-0.654,0.602-1.312,1.354-1.977,2.256c-0.265-0.091-1.012-0.36-2.243-0.807c-0.857-0.31-1.964-0.465-3.322-0.465
				c-0.793,0-1.518,0.08-2.174,0.239C40.079,34.657,39.496,34.896,38.985,35.215z M44.085,25.111c2.22,0,4.035,0.403,5.444,1.21
				c1.41,0.807,2.115,1.848,2.115,3.124c0,0.611-0.125,1.276-0.379,1.996c1.256-1.066,1.883-2.206,1.883-3.418
				c0-1.385-0.489-2.454-1.473-3.206c-0.982-0.752-2.789-1.433-5.417-2.044C45.675,23.266,44.951,24.045,44.085,25.111z"/>
		</g>
	</g>
</g>
<g id="Layer_3" display="none">
</g>
</svg>
