<?xml version="1.0" encoding="UTF-8" standalone="no"?>
<!-- Generator: Adobe Illustrator 15.0.2, SVG Export Plug-In . SVG Version: 6.00 Build 0)  -->

<svg
   xmlns:dc="http://purl.org/dc/elements/1.1/"
   xmlns:cc="http://creativecommons.org/ns#"
   xmlns:rdf="http://www.w3.org/1999/02/22-rdf-syntax-ns#"
   xmlns:svg="http://www.w3.org/2000/svg"
   xmlns="http://www.w3.org/2000/svg"
   xmlns:xlink="http://www.w3.org/1999/xlink"
   xmlns:sodipodi="http://sodipodi.sourceforge.net/DTD/sodipodi-0.dtd"
   xmlns:inkscape="http://www.inkscape.org/namespaces/inkscape"
   version="1.1"
   x="0px"
   y="0px"
   width="95.5px"
   height="92.792px"
   viewBox="0 0 95.5 92.792"
   enable-background="new 0 0 95.5 92.792"
   xml:space="preserve"
   id="svg3095"
   inkscape:version="0.48.5 r10040"
   sodipodi:docname="YouScriber_Logo2-nliteal.png"><metadata
     id="metadata3136"><rdf:RDF><cc:Work
         rdf:about=""><dc:format>image/svg+xml</dc:format><dc:type
           rdf:resource="http://purl.org/dc/dcmitype/StillImage" /><dc:title></dc:title></cc:Work></rdf:RDF></metadata><defs
     id="defs3134"><defs
       id="defs3101"><rect
         id="SVGID_1_"
         width="95.5"
         height="92.792"
         x="0"
         y="0" /></defs><clipPath
       id="SVGID_2_"><use
         xlink:href="#SVGID_1_"
         overflow="visible"
         id="use3105"
         style="overflow:visible"
         x="0"
         y="0"
         width="95.5"
         height="92.792" /></clipPath></defs><sodipodi:namedview
     pagecolor="#ffffff"
     bordercolor="#666666"
     borderopacity="1"
     objecttolerance="10"
     gridtolerance="10"
     guidetolerance="10"
     inkscape:pageopacity="0"
     inkscape:pageshadow="2"
     inkscape:window-width="864"
     inkscape:window-height="534"
     id="namedview3132"
     showgrid="false"
     inkscape:zoom="2.5433227"
     inkscape:cx="47.75"
     inkscape:cy="46.396"
     inkscape:window-x="237"
     inkscape:window-y="115"
     inkscape:window-maximized="0"
     inkscape:current-layer="svg3095" /><g
     id="Layer_1"
     display="none" /><rect
     style="fill:#158d9d;fill-opacity:1"
     x="0"
     id="rect3108"
     height="93.144997"
     width="95.669998"
     y="0.167" /><g
     id="Layer_2"
     clip-path="url(#SVGID_2_)"><line
       stroke-miterlimit="10"
       x1="42.124001"
       y1="89.5"
       x2="55.249001"
       y2="89.5"
       id="line3111"
       style="fill:none;stroke:#ffffff;stroke-width:10;stroke-miterlimit:10" /><path
       stroke-miterlimit="10"
       d="M 43.334,94.333 C 41.667,55 15.001,25.666 15.001,25.666 c 8,-7.667 8.667,-26 8.667,-26"
       id="path3113"
       inkscape:connector-curvature="0"
       style="fill:none;stroke:#ffffff;stroke-width:9;stroke-miterlimit:10" /><path
       stroke-miterlimit="10"
       d="m 71.002,-0.334 c 0,0 0.666,18.333 8.666,26 0,0 -26.666,29.334 -28.334,68.667"
       id="path3115"
       inkscape:connector-curvature="0"
       style="fill:none;stroke:#ffffff;stroke-width:9;stroke-miterlimit:10" /><line
       stroke-miterlimit="10"
       x1="18.709"
       y1="3.125"
       x2="75.749001"
       y2="3.125"
       id="line3117"
       style="fill:none;stroke:#ffffff;stroke-width:10;stroke-miterlimit:10" /><line
       stroke-miterlimit="10"
       x1="47.334"
       y1="86.417"
       x2="47.334"
       y2="48.25"
       id="line3119"
       style="fill:none;stroke:#ffffff;stroke-miterlimit:10" /><rect
       x="39.625"
       y="11.458"
       width="20.167"
       height="27.167"
       id="rect3121"
       style="fill:none" /><line
       stroke-miterlimit="10"
       x1="47.667"
       y1="49.5"
       x2="19.667"
       y2="25.333"
       id="line3123"
       style="fill:none;stroke:#ffffff;stroke-miterlimit:10" /><line
       stroke-miterlimit="10"
       x1="47.000999"
       y1="49.667"
       x2="75.001999"
       y2="25.499001"
       id="line3125"
       style="fill:none;stroke:#ffffff;stroke-miterlimit:10" /></g><g
     clip-path="url(#SVGID_2_)"
     id="g3127"><path
       d="m 38.985,35.215 c 0.447,-1.221 1.034,-2.21 1.764,-2.967 0.401,-0.118 0.8,-0.205 1.196,-0.26 0.396,-0.055 0.791,-0.082 1.183,-0.082 1.914,0 3.837,0.456 5.769,1.367 0.931,-0.692 1.396,-1.436 1.396,-2.229 0,-1.066 -0.724,-1.978 -2.167,-2.734 -1.445,-0.756 -3.184,-1.135 -5.216,-1.135 -0.556,0 -1.148,0.068 -1.777,0.205 1.194,-1.859 2.629,-3.477 4.307,-4.854 -1.312,-0.328 -2.224,-0.713 -2.734,-1.155 -0.511,-0.442 -0.766,-1.064 -0.766,-1.866 0,-0.173 0.014,-0.383 0.041,-0.629 1.403,-1.841 3.058,-3.372 4.963,-4.594 1.157,1.066 2.321,1.6 3.487,1.6 0.547,0 1.129,-0.077 1.743,-0.232 0.615,-0.155 1.269,-0.383 1.961,-0.684 -0.229,1.012 -0.622,1.928 -1.176,2.748 -0.49,0.201 -0.983,0.354 -1.479,0.458 -0.496,0.105 -0.99,0.157 -1.48,0.157 -1.639,0 -3.157,-0.62 -4.558,-1.859 -0.711,0.638 -1.066,1.226 -1.066,1.764 0,0.976 1.057,1.769 3.172,2.379 0.647,0.183 1.043,0.301 1.188,0.355 l 0.943,0.301 c 3.619,1.176 5.428,3.054 5.428,5.633 0,1.677 -1.082,3.396 -3.25,5.154 -0.463,0.383 -0.717,0.593 -0.764,0.629 l -0.641,0.588 c -0.654,0.602 -1.312,1.354 -1.977,2.256 -0.265,-0.091 -1.012,-0.36 -2.243,-0.807 -0.857,-0.31 -1.964,-0.465 -3.322,-0.465 -0.793,0 -1.518,0.08 -2.174,0.239 -0.657,0.161 -1.24,0.4 -1.751,0.719 z m 5.1,-10.104 c 2.22,0 4.035,0.403 5.444,1.21 1.41,0.807 2.115,1.848 2.115,3.124 0,0.611 -0.125,1.276 -0.379,1.996 1.256,-1.066 1.883,-2.206 1.883,-3.418 0,-1.385 -0.489,-2.454 -1.473,-3.206 -0.982,-0.752 -2.789,-1.433 -5.417,-2.044 -0.583,0.493 -1.307,1.272 -2.173,2.338 z"
       id="path3129"
       inkscape:connector-curvature="0"
       style="fill:#ffffff" /></g><g
     id="Layer_3"
     display="none" /></svg>