<?xml version="1.0" encoding="UTF-8" standalone="no"?>
<!-- Created with Inkscape (http://www.inkscape.org/) -->

<svg
   xmlns:dc="http://purl.org/dc/elements/1.1/"
   xmlns:cc="http://creativecommons.org/ns#"
   xmlns:rdf="http://www.w3.org/1999/02/22-rdf-syntax-ns#"
   xmlns:svg="http://www.w3.org/2000/svg"
   xmlns="http://www.w3.org/2000/svg"
   xmlns:sodipodi="http://sodipodi.sourceforge.net/DTD/sodipodi-0.dtd"
   xmlns:inkscape="http://www.inkscape.org/namespaces/inkscape"
   id="svg2"
   sodipodi:docname="ys.svg"
   viewBox="0 0 1842.0704 1900.5169"
   sodipodi:version="0.32"
   version="1.0"
   inkscape:output_extension="org.inkscape.output.svg.inkscape"
   inkscape:version="0.48.5 r10040"
   width="100%"
   height="100%">
  <defs
     id="defs3039">
    <clipPath
       clipPathUnits="userSpaceOnUse"
       id="clipPath3916">
      <rect
         y="226.64252"
         x="-1.6815649e-05"
         height="1899.9723"
         width="935.00208"
         id="rect3918"
         style="fill:#ffffff;fill-opacity:1;stroke:none" />
    </clipPath>
  </defs>
  <sodipodi:namedview
     id="base"
     bordercolor="#666666"
     inkscape:pageshadow="2"
     inkscape:window-y="45"
     pagecolor="#ffffff"
     inkscape:zoom="0.16684455"
     inkscape:window-x="2"
     borderopacity="1.0"
     inkscape:current-layer="svg2"
     inkscape:cx="2619.518"
     inkscape:cy="1113.4764"
     inkscape:window-height="721"
     showgrid="false"
     inkscape:pageopacity="0.0"
     inkscape:window-width="1270"
     inkscape:window-maximized="0"
     fit-margin-top="0"
     fit-margin-left="0"
     fit-margin-right="0"
     fit-margin-bottom="0" />
  <metadata
     id="metadata3037">
    <rdf:RDF>
      <cc:Work>
        <dc:format>image/svg+xml</dc:format>
        <dc:type
           rdf:resource="http://purl.org/dc/dcmitype/StillImage" />
        <cc:license
           rdf:resource="http://creativecommons.org/licenses/publicdomain/" />
        <dc:publisher>
          <cc:Agent
             rdf:about="http://openclipart.org/">
            <dc:title>Openclipart</dc:title>
          </cc:Agent>
        </dc:publisher>
        <dc:title></dc:title>
        <dc:date>2006-12-26T00:00:00</dc:date>
        <dc:description />
        <dc:source>https://openclipart.org/detail/11731/-by--11731</dc:source>
        <dc:creator>
          <cc:Agent>
            <dc:title>PeterM</dc:title>
          </cc:Agent>
        </dc:creator>
      </cc:Work>
      <cc:License
         rdf:about="http://creativecommons.org/licenses/publicdomain/">
        <cc:permits
           rdf:resource="http://creativecommons.org/ns#Reproduction" />
        <cc:permits
           rdf:resource="http://creativecommons.org/ns#Distribution" />
        <cc:permits
           rdf:resource="http://creativecommons.org/ns#DerivativeWorks" />
      </cc:License>
    </rdf:RDF>
  </metadata>
  <path
     sodipodi:type="arc"
     style="fill:none;stroke:#ffffff;stroke-width:86.51763152999998852;stroke-miterlimit:4;stroke-opacity:1;stroke-dasharray:none"
     id="path3823"
     sodipodi:cx="-893.04688"
     sodipodi:cy="415.99274"
     sodipodi:rx="218.76651"
     sodipodi:ry="166.32249"
     d="m -674.28036,415.99274 a 218.76651,166.32249 0 1 1 -437.53304,-1e-5"
     transform="matrix(1.702703,0,0,1.9514277,2910.1091,679.77695)"
     sodipodi:start="0"
     sodipodi:end="3.1415927"
     sodipodi:open="true" />
  <path
     inkscape:connector-curvature="0"
     id="rect1323"
     sodipodi:nodetypes="ccssssssscssssssscc"
     style="fill:none;stroke:#ffffff;stroke-width:39.35200499999999835;stroke-linecap:round;stroke-miterlimit:4;stroke-dasharray:none;stroke-opacity:1"
     d="m 74.12889,19.653941 c 100.06646,18.013353 594.34537,380.038499 615.41524,811.890429 24.5549,39.98107 15.94033,-142.17931 43.98838,-75.68332 18.73956,44.3935 15.81188,154.76926 35.02727,198.81505 19.21536,44.0457 21.34242,-195.47307 48.2304,-32.63978 7.26715,43.9763 10.59279,120.35948 21.85359,158.72418 11.24469,38.3345 39.51625,-194.40461 45.04298,68.9101 0.65903,32.2939 9.94977,59.8463 10.61515,82.7759 0.7008,22.9157 -1.59023,40.7493 -7.17178,52.3103 -5.59765,11.5307 -14.48581,16.7888 -26.97936,14.5537 -12.50981,-2.265 -28.65062,-12.0317 -47.70183,-28.0007 -19.01591,-15.9827 -126.60228,-71.8541 -62.05909,-56.5839 58.336,13.829 -63.3652,-63.8975 -95.8994,-96.614 -58.78356,-59.1593 72.24939,22.3179 42.24007,-19.4144 C 666.68591,1056.9788 514.89985,927.40714 475.10384,887.63413 363.35214,775.98901 621.57555,961.64171 580.9359,921.85093 520.03925,862.22232 320.82232,643.92751 292.7557,599.64627 264.6632,555.3571 236.95,504.46167 212.39522,464.48045 15.89863,144.56281 -25.96146,1.6280843 74.12889,19.653941 z" />
  <path
     inkscape:connector-curvature="0"
     id="path1326"
     sodipodi:nodetypes="ccccc"
     style="fill:#ffffff;stroke:#ffffff;stroke-width:92.11253356999999653;stroke-linecap:round;stroke-miterlimit:4;stroke-dasharray:none;stroke-opacity:1"
     d="m 403.13747,502.67563 c 42.90579,31.29985 154.37216,188.48313 309.18738,440.51207 154.79486,252.0227 262.74288,458.1932 310.02005,567.5678 C 933.42658,1428.4121 741.54997,1068.1613 586.75511,816.13855 431.95266,564.13311 415.80716,541.14559 403.13747,502.67563 z" />
  <g
     id="g4097">
    <text
       mask="none"
       sodipodi:linespacing="125%"
       id="text3041"
       y="979.51685"
       x="772.48199"
       style="font-size:460.61843871999997191px;font-style:normal;font-weight:normal;line-height:125%;letter-spacing:0px;word-spacing:0px;fill:#ffffff;fill-opacity:1;stroke:none;font-family:Sans"
       xml:space="preserve"><tspan
         style="font-size:1658.22644043000013880px;font-style:normal;font-variant:normal;font-weight:normal;font-stretch:normal;text-align:start;line-height:125%;writing-mode:lr-tb;text-anchor:start;font-family:Sans;-inkscape-font-specification:Sans;fill:#ffffff;fill-opacity:1"
         y="979.51685"
         x="772.48199"
         id="tspan3043"
         sodipodi:role="line">U</tspan></text>
    <path
       inkscape:connector-curvature="0"
       id="path3825"
       d="m 1761.7541,-122.42642 0,1630.52462"
       style="fill:none;stroke:#ffffff;stroke-width:157.70675658999999769;stroke-linecap:butt;stroke-linejoin:miter;stroke-miterlimit:4;stroke-opacity:1;stroke-dasharray:none" />
  </g>
</svg>
